<svg width="1490" height="1666" viewBox="0 0 1490 1666" fill="none" xmlns="http://www.w3.org/2000/svg">
<path d="M755.271 1367.62C1124.64 1367.62 1424.08 1068.19 1424.08 698.811C1424.08 329.437 1124.64 30 755.271 30C385.896 30 86.4595 329.437 86.4595 698.811C86.4595 1068.19 385.896 1367.62 755.271 1367.62Z" stroke="black" stroke-width="60"/>
<path d="M772.586 320.932L670.16 665.073H784.33C835.543 665.073 874.035 657.245 899.478 641.261C924.922 625.603 951.018 591.678 978.092 540.139H1002.56L912.2 856.879H886.43C892.954 831.109 895.89 810.232 895.89 793.27C895.89 767.174 887.083 746.95 869.794 732.597C852.505 718.244 820.212 711.068 772.586 711.068H657.112L581.433 973.332C567.733 1019.98 560.883 1050.97 560.883 1066.3C560.883 1081.96 566.754 1094.35 578.497 1102.83C590.241 1111.32 618.946 1117.19 664.614 1120.12L656.785 1143.94H313.623L322.104 1120.12C355.377 1119.14 377.558 1116.21 388.649 1110.99C405.611 1103.81 418.333 1094.03 426.488 1081.63C437.905 1064.02 451.606 1028.13 467.589 973.332L620.903 449.781C633.299 407.375 639.497 374.429 639.497 350.29C639.497 339.2 636.561 329.74 631.016 321.911C625.47 314.082 617.315 308.211 606.224 304.296C595.46 300.382 573.604 298.425 541.311 298.425L549.139 274.612H1223.07L1159.13 494.471H1134.67C1139.24 468.049 1141.84 446.193 1141.84 429.231C1141.84 401.178 1134.02 378.67 1118.36 362.36C1102.7 346.05 1082.8 334.307 1058.34 327.456C1041.38 323.216 1002.88 320.932 943.515 320.932H772.586Z" fill="black"/>
<path d="M772.586 320.932L670.16 665.073H784.33C835.543 665.073 874.035 657.245 899.478 641.261C924.922 625.603 951.018 591.678 978.092 540.139H1002.56L912.2 856.879H886.43C892.954 831.109 895.89 810.232 895.89 793.27C895.89 767.174 887.083 746.95 869.794 732.597C852.505 718.244 820.212 711.068 772.586 711.068H657.112L581.433 973.332C567.733 1019.98 560.883 1050.97 560.883 1066.3C560.883 1081.96 566.754 1094.35 578.497 1102.83C590.241 1111.32 618.946 1117.19 664.614 1120.12L656.785 1143.94H313.623L322.104 1120.12C355.377 1119.14 377.558 1116.21 388.649 1110.99C405.611 1103.81 418.333 1094.03 426.488 1081.63C437.905 1064.02 451.606 1028.13 467.589 973.332L620.903 449.781C633.299 407.375 639.497 374.429 639.497 350.29C639.497 339.2 636.561 329.74 631.016 321.911C625.47 314.082 617.315 308.211 606.224 304.296C595.46 300.382 573.604 298.425 541.311 298.425L549.139 274.612H1223.07L1159.13 494.471H1134.67C1139.24 468.049 1141.84 446.193 1141.84 429.231C1141.84 401.178 1134.02 378.67 1118.36 362.36C1102.7 346.05 1082.8 334.307 1058.34 327.456C1041.38 323.216 1002.88 320.932 943.515 320.932H772.586Z" fill="black"/>
<path d="M762.586 320.932L660.16 665.073H774.33C825.543 665.073 864.035 657.245 889.478 641.261C914.922 625.603 941.018 591.678 968.092 540.139H992.557L902.2 856.879H876.43C882.954 831.109 885.89 810.232 885.89 793.27C885.89 767.174 877.083 746.95 859.794 732.597C842.505 718.244 810.212 711.068 762.586 711.068H647.112L571.433 973.332C557.733 1019.98 550.883 1050.97 550.883 1066.3C550.883 1081.96 556.754 1094.35 568.497 1102.83C580.241 1111.32 608.946 1117.19 654.614 1120.12L646.785 1143.94H303.623L312.104 1120.12C345.377 1119.14 367.558 1116.21 378.649 1110.99C395.611 1103.81 408.333 1094.03 416.488 1081.63C427.905 1064.02 441.606 1028.13 457.589 973.332L610.903 449.781C623.299 407.375 629.497 374.429 629.497 350.29C629.497 339.2 626.561 329.74 621.016 321.911C615.47 314.082 607.315 308.211 596.224 304.296C585.46 300.382 563.604 298.425 531.311 298.425L539.139 274.612H1213.07L1149.13 494.471H1124.67C1129.24 468.049 1131.84 446.193 1131.84 429.231C1131.84 401.178 1124.02 378.67 1108.36 362.36C1092.7 346.05 1072.8 334.307 1048.34 327.456C1031.38 323.216 992.884 320.932 933.515 320.932H762.586Z" fill="black"/>
<path d="M762.586 320.932L660.16 665.073H774.33C825.543 665.073 864.035 657.245 889.478 641.261C914.922 625.603 941.018 591.678 968.092 540.139H992.557L902.2 856.879H876.43C882.954 831.109 885.89 810.232 885.89 793.27C885.89 767.174 877.083 746.95 859.794 732.597C842.505 718.244 810.212 711.068 762.586 711.068H647.112L571.433 973.332C557.733 1019.98 550.883 1050.97 550.883 1066.3C550.883 1081.96 556.754 1094.35 568.497 1102.83C580.241 1111.32 608.946 1117.19 654.614 1120.12L646.785 1143.94H303.623L312.104 1120.12C345.377 1119.14 367.558 1116.21 378.649 1110.99C395.611 1103.81 408.333 1094.03 416.488 1081.63C427.905 1064.02 441.606 1028.13 457.589 973.332L610.903 449.781C623.299 407.375 629.497 374.429 629.497 350.29C629.497 339.2 626.561 329.74 621.016 321.911C615.47 314.082 607.315 308.211 596.224 304.296C585.46 300.382 563.604 298.425 531.311 298.425L539.139 274.612H1213.07L1149.13 494.471H1124.67C1129.24 468.049 1131.84 446.193 1131.84 429.231C1131.84 401.178 1124.02 378.67 1108.36 362.36C1092.7 346.05 1072.8 334.307 1048.34 327.456C1031.38 323.216 992.884 320.932 933.515 320.932H762.586Z" fill="black"/>
<path d="M1078.56 433.145L1039.74 602.443H1025.72L1024.09 560.037C1022.78 544.705 1019.85 531.005 1015.28 518.936C1010.71 506.866 1003.86 496.428 994.402 487.62C985.269 478.813 973.525 471.963 959.173 466.744C945.146 461.851 929.488 459.241 912.2 459.241C866.206 459.241 826.083 471.963 791.506 497.08C747.469 529.048 713.218 574.39 688.1 633.106C667.55 681.383 657.111 730.313 657.111 779.896C657.111 830.457 671.79 870.905 701.475 901.242C731.159 931.579 769.324 946.584 816.623 946.584C852.179 946.584 884.147 938.755 911.874 922.771C939.601 906.788 965.697 882.322 989.509 849.05H1007.78C979.397 894.066 948.082 927.012 913.831 948.215C879.254 969.418 838.152 979.856 790.201 979.856C747.469 979.856 709.63 971.049 677.01 953.108C644.063 935.167 618.946 910.049 601.984 877.756C584.695 845.462 576.214 810.558 576.214 773.372C576.214 716.287 591.545 660.833 622.208 607.01C652.871 553.187 694.624 510.781 748.121 479.792C801.292 448.803 855.115 433.471 909.264 433.471C934.708 433.471 963.087 439.669 994.728 451.738C1008.76 456.958 1018.54 459.567 1024.74 459.567C1030.94 459.567 1036.16 458.262 1041.05 455.653C1045.62 453.043 1053.44 445.867 1064.21 433.797H1078.56V433.145Z" fill="black"/>
<path d="M63.0957 1596.75H28.2471L21.8359 1633.57H0.126953L16.123 1541.15H76.2354L73.252 1558.35H34.9121L31.2305 1579.61H66.0791L63.0957 1596.75ZM111.782 1616.3H82.2656L74.0771 1633.57H50.1465L99.0869 1541.15H119.526L136.602 1633.57H114.004L111.782 1616.3ZM90.3906 1599.1H109.561L105.498 1567.23L90.3906 1599.1ZM194.873 1608.56C195.804 1603.78 193.223 1600.07 187.129 1597.45L176.719 1593.13C162.119 1586.57 155.179 1577.64 155.898 1566.35C156.195 1561.18 157.972 1556.59 161.23 1552.57C164.489 1548.51 168.996 1545.36 174.751 1543.11C180.506 1540.87 186.79 1539.79 193.604 1539.88C202.744 1540.05 210.086 1542.71 215.63 1547.87C221.216 1553.04 223.966 1559.96 223.882 1568.63H202.3C202.427 1565.08 201.665 1562.24 200.015 1560.12C198.407 1557.97 195.741 1556.85 192.017 1556.76C188.377 1556.68 185.161 1557.52 182.368 1559.3C179.575 1561.08 177.925 1563.47 177.417 1566.47C176.613 1570.7 179.744 1574.17 186.812 1576.88C193.921 1579.59 199.084 1581.92 202.3 1583.87C212.414 1589.92 217.153 1598.08 216.519 1608.37C216.18 1613.7 214.466 1618.38 211.377 1622.4C208.288 1626.42 203.993 1629.53 198.491 1631.73C193.032 1633.93 186.896 1634.99 180.083 1634.9C175.09 1634.82 170.456 1634.03 166.182 1632.55C161.908 1631.07 158.247 1628.91 155.2 1626.08C149.022 1620.36 146.06 1612.85 146.313 1603.54L168.086 1603.61C167.832 1608.35 168.742 1611.94 170.815 1614.4C172.889 1616.81 176.38 1618.02 181.289 1618.02C184.928 1618.02 187.954 1617.19 190.366 1615.54C192.821 1613.85 194.323 1611.52 194.873 1608.56ZM307.227 1558.35H280.312L267.3 1633.57H245.527L258.604 1558.35H232.134L235.181 1541.15H310.21L307.227 1558.35ZM409.551 1602.08C409.001 1608.56 406.864 1614.31 403.14 1619.35C399.458 1624.38 394.591 1628.26 388.54 1630.96C382.531 1633.67 376.014 1634.96 368.989 1634.84C359.341 1634.63 351.745 1631.51 346.201 1625.51C340.658 1619.5 337.632 1611.35 337.124 1601.07C336.743 1594.21 337.484 1586.74 339.346 1578.66C341.25 1570.58 344.318 1563.55 348.55 1557.59C352.824 1551.58 357.839 1547.09 363.594 1544.13C369.391 1541.12 375.718 1539.69 382.573 1539.81C392.645 1539.98 400.601 1543.01 406.44 1548.89C412.323 1554.77 415.518 1562.88 416.025 1573.2L394.38 1573.14C394.465 1567.51 393.449 1563.49 391.333 1561.08C389.217 1558.67 385.874 1557.37 381.304 1557.21C369.878 1556.82 362.917 1565.71 360.42 1583.87C359.277 1592.07 358.706 1597.94 358.706 1601.45C358.494 1611.86 362.345 1617.21 370.259 1617.51C375.379 1617.68 379.463 1616.43 382.51 1613.76C385.557 1611.05 387.503 1607.25 388.35 1602.34L409.551 1602.08ZM469.79 1616.3H440.273L432.085 1633.57H408.154L457.095 1541.15H477.534L494.609 1633.57H472.012L469.79 1616.3ZM448.398 1599.1H467.568L463.506 1567.23L448.398 1599.1ZM552.881 1608.56C553.812 1603.78 551.23 1600.07 545.137 1597.45L534.727 1593.13C520.127 1586.57 513.187 1577.64 513.906 1566.35C514.202 1561.18 515.98 1556.59 519.238 1552.57C522.497 1548.51 527.004 1545.36 532.759 1543.11C538.514 1540.87 544.798 1539.79 551.611 1539.88C560.752 1540.05 568.094 1542.71 573.638 1547.87C579.224 1553.04 581.974 1559.96 581.89 1568.63H560.308C560.435 1565.08 559.673 1562.24 558.022 1560.12C556.414 1557.97 553.748 1556.85 550.024 1556.76C546.385 1556.68 543.169 1557.52 540.376 1559.3C537.583 1561.08 535.933 1563.47 535.425 1566.47C534.621 1570.7 537.752 1574.17 544.819 1576.88C551.929 1579.59 557.091 1581.92 560.308 1583.87C570.422 1589.92 575.161 1598.08 574.526 1608.37C574.188 1613.7 572.474 1618.38 569.385 1622.4C566.296 1626.42 562 1629.53 556.499 1631.73C551.04 1633.93 544.904 1634.99 538.091 1634.9C533.097 1634.82 528.464 1634.03 524.189 1632.55C519.915 1631.07 516.255 1628.91 513.208 1626.08C507.03 1620.36 504.067 1612.85 504.321 1603.54L526.094 1603.61C525.84 1608.35 526.75 1611.94 528.823 1614.4C530.897 1616.81 534.388 1618.02 539.297 1618.02C542.936 1618.02 545.962 1617.19 548.374 1615.54C550.828 1613.85 552.331 1611.52 552.881 1608.56ZM656.729 1633.57H635.146L641.812 1594.97H610.137L603.408 1633.57H581.699L597.695 1541.15H619.468L613.057 1577.83H644.795L651.143 1541.15H672.788L656.729 1633.57ZM747.246 1541.15L756.069 1605.26L787.046 1541.15H815.991L799.995 1633.57H778.159L782.095 1610.91L791.489 1569.14L759.116 1633.57H744.707L734.233 1566.73L728.394 1613.06L724.775 1633.57H703.066L719.062 1541.15H747.246ZM852.427 1634.84C842.821 1634.63 835.119 1631.45 829.321 1625.32C823.524 1619.18 820.244 1610.97 819.482 1600.69C819.059 1595.61 819.461 1589.64 820.688 1582.79C821.916 1575.89 824.095 1569.54 827.227 1563.74C830.358 1557.95 834.272 1553.12 838.97 1549.27C846.841 1542.8 855.897 1539.66 866.138 1539.88C872.443 1540 877.944 1541.46 882.642 1544.26C887.381 1547.01 891.169 1550.98 894.004 1556.19C896.839 1561.39 898.49 1567.32 898.955 1573.96C899.294 1578.66 898.997 1584.01 898.066 1590.02C897.178 1595.99 895.506 1601.7 893.052 1607.16C890.64 1612.58 887.508 1617.36 883.657 1621.51C879.806 1625.65 875.257 1628.95 870.01 1631.41C864.805 1633.82 858.944 1634.96 852.427 1634.84ZM877.183 1573.77C876.759 1563.19 872.655 1557.69 864.868 1557.27C858.859 1556.97 853.887 1559.36 849.951 1564.44C846.016 1569.48 843.413 1576.93 842.144 1586.79C841.34 1592.88 841.043 1597.6 841.255 1600.94C841.678 1611.69 845.825 1617.21 853.696 1617.51C858.859 1617.76 863.302 1615.92 867.026 1611.99C870.75 1608.01 873.438 1602.25 875.088 1594.72C876.738 1587.14 877.437 1580.16 877.183 1573.77ZM976.968 1633.57H955.957L933.867 1575.23L923.711 1633.57H902.002L917.998 1541.15H939.199L961.226 1599.48L971.318 1541.15H993.027L976.968 1633.57ZM1053.77 1594.4H1019.81L1015.94 1616.43H1056.12L1053.14 1633.57H991.25L1007.25 1541.15H1069.26L1066.28 1558.35H1026.04L1022.61 1577.83H1056.63L1053.77 1594.4ZM1103.98 1581.14L1127.34 1541.15H1151.78L1111.92 1601.38L1106.4 1633.57H1084.31L1090.27 1599.29L1071.8 1541.21L1094.4 1541.15L1103.98 1581.14ZM1201.61 1602.21L1196.15 1633.57H1174.44L1190.44 1541.15L1223.64 1541.21C1233.92 1541.21 1242 1544.07 1247.89 1549.78C1253.81 1555.49 1256.41 1562.9 1255.69 1572C1255.19 1578.22 1253.2 1583.61 1249.73 1588.18C1246.26 1592.75 1241.67 1596.24 1235.95 1598.66C1230.28 1601.07 1223.91 1602.27 1216.85 1602.27L1201.61 1602.21ZM1204.59 1585.01L1217.67 1585.13C1223.17 1585.01 1227.38 1583.23 1230.3 1579.8C1233.22 1576.33 1234.39 1572.08 1233.79 1567.04C1233.46 1564.46 1232.46 1562.43 1230.81 1560.95C1229.2 1559.43 1227.07 1558.58 1224.4 1558.41L1209.23 1558.35L1204.59 1585.01ZM1281.91 1616.43H1319.55L1316.57 1633.57H1257.22L1273.21 1541.15H1294.99L1281.91 1616.43ZM1411.46 1541.15L1401.18 1601.45C1399.7 1611.9 1395.38 1620.13 1388.23 1626.14C1381.12 1632.15 1372.15 1635.07 1361.32 1634.9C1354.59 1634.77 1348.75 1633.33 1343.8 1630.58C1338.85 1627.79 1335.19 1623.88 1332.82 1618.84C1330.49 1613.76 1329.71 1607.99 1330.47 1601.51L1340.75 1541.15H1362.59L1352.37 1601.58C1352.11 1603.69 1352.07 1605.7 1352.24 1607.61C1352.45 1610.74 1353.43 1613.17 1355.16 1614.91C1356.94 1616.64 1359.44 1617.57 1362.65 1617.7C1371.96 1617.99 1377.57 1612.6 1379.47 1601.51L1389.76 1541.15H1411.46ZM1459.96 1608.56C1460.89 1603.78 1458.31 1600.07 1452.22 1597.45L1441.81 1593.13C1427.21 1586.57 1420.27 1577.64 1420.99 1566.35C1421.28 1561.18 1423.06 1556.59 1426.32 1552.57C1429.58 1548.51 1434.08 1545.36 1439.84 1543.11C1445.59 1540.87 1451.88 1539.79 1458.69 1539.88C1467.83 1540.05 1475.17 1542.71 1480.72 1547.87C1486.3 1553.04 1489.05 1559.96 1488.97 1568.63H1467.39C1467.51 1565.08 1466.75 1562.24 1465.1 1560.12C1463.49 1557.97 1460.83 1556.85 1457.1 1556.76C1453.47 1556.68 1450.25 1557.52 1447.46 1559.3C1444.66 1561.08 1443.01 1563.47 1442.5 1566.47C1441.7 1570.7 1444.83 1574.17 1451.9 1576.88C1459.01 1579.59 1464.17 1581.92 1467.39 1583.87C1477.5 1589.92 1482.24 1598.08 1481.61 1608.37C1481.27 1613.7 1479.55 1618.38 1476.46 1622.4C1473.38 1626.42 1469.08 1629.53 1463.58 1631.73C1458.12 1633.93 1451.98 1634.99 1445.17 1634.9C1440.18 1634.82 1435.54 1634.03 1431.27 1632.55C1427 1631.07 1423.33 1628.91 1420.29 1626.08C1414.11 1620.36 1411.15 1612.85 1411.4 1603.54L1433.17 1603.61C1432.92 1608.35 1433.83 1611.94 1435.9 1614.4C1437.98 1616.81 1441.47 1618.02 1446.38 1618.02C1450.02 1618.02 1453.04 1617.19 1455.45 1615.54C1457.91 1613.85 1459.41 1611.52 1459.96 1608.56Z" fill="black"/>
</svg>
